<svg width="512" height="512" viewBox="0 0 512 512" fill="none" xmlns="http://www.w3.org/2000/svg">
<circle cx="255.864" cy="255.864" r="247.435" fill="url(#paint0_linear_201_64)"/>
<path d="M240.789 96.9506C225.406 101.044 213.994 112.209 210.272 126.723C208.597 133.111 208.597 142.477 210.21 148.804C212.443 157.425 217.901 166.109 224.228 171.009L227.639 173.614L227.701 186.143C227.763 192.966 227.949 201.153 228.197 204.316L228.57 209.961L238.804 206.301C244.448 204.316 249.906 202.642 250.961 202.642C252.015 202.642 257.411 204.006 263.056 205.743C268.638 207.418 273.414 208.844 273.6 208.844C273.786 208.844 274.158 200.843 274.344 191.043C274.716 174.916 274.841 173.18 275.833 172.683C276.453 172.373 279.058 169.954 281.663 167.349C290.161 158.79 294.503 147.563 293.758 135.53C292.704 117.109 280.051 101.789 262.001 97.1987C256.233 95.7101 245.751 95.586 240.789 96.9506ZM257.908 119.9C261.567 121.761 264.544 124.862 266.281 128.77C267.211 130.94 267.397 132.429 267.211 135.592C266.839 140.492 265.227 143.904 261.815 147.005L259.272 149.3V159.658C259.272 165.427 258.962 171.133 258.652 172.373C257.039 178.018 248.728 179.382 244.758 174.668C243.146 172.808 243.146 172.746 243.146 161.023V149.3L240.541 146.943C237.005 143.78 235.082 139.438 235.082 134.724C235.082 130.258 236.509 126.971 239.796 123.621C245.068 118.349 251.891 116.923 257.908 119.9Z" fill="white"/>
<path d="M239.734 216.039C236.013 217.528 229.624 220.319 225.654 222.304L218.335 225.839V239.112C218.335 249.471 218.522 252.324 219.142 252.138C219.514 251.952 222.615 250.897 225.965 249.781L231.981 247.734V242.648V237.5L236.633 235.639L241.285 233.716V241.966V250.215L231.423 253.688C225.965 255.611 220.817 257.348 219.948 257.596L218.335 257.968V268.388C218.335 274.095 218.522 280.049 218.708 281.662L219.142 284.515H225.406H231.671L231.485 277.444L231.299 270.311L233.966 269.629C235.454 269.257 237.129 268.823 237.749 268.636C238.308 268.512 239.362 268.202 240.044 268.016C241.223 267.706 241.285 267.954 241.285 277.94C241.285 288.174 241.285 288.236 239.92 288.236C220.692 288.423 191.106 289.849 163.133 292.02C129.949 294.563 126.662 295.742 126.042 305.852C125.298 318.071 134.601 344.928 144.835 360.186C148.867 366.202 158.481 376.188 164.435 380.654C176.654 389.71 193.835 395.912 212.753 398.083C221.065 399.014 243.022 398.455 251.767 397.091C260.575 395.726 273.166 392.439 280.671 389.648C315.467 376.561 346.976 347.595 364.095 312.798C368.685 303.495 372.903 291.772 374.019 285.135L374.701 281.104L379.787 281.29C395.418 281.91 411.917 273.661 420.476 261.007C422.895 257.472 426.12 251.455 426.12 250.525C426.12 250.277 424.26 249.347 421.965 248.416C409.684 243.64 395.79 244.571 383.013 250.959L377.12 253.936V251.517C377.12 247.362 375.26 240.353 372.717 235.081C368.499 226.211 360.808 219.326 351.69 216.225C346.604 214.488 346.79 214.364 344.867 220.567C339.161 238.802 343.751 258.278 356.528 270.435C358.637 272.42 360.373 274.281 360.373 274.591C360.373 275.707 352.558 282.22 349.147 283.895C340.525 288.298 328.244 289.477 296.363 288.981L279.741 288.733V255.301V221.931L273.414 219.947C269.879 218.892 263.552 216.969 259.334 215.605C255.117 214.302 250.527 213.186 249.1 213.248C247.673 213.248 243.58 214.488 239.734 216.039ZM198.239 323.901C205.496 328.119 205.062 339.531 197.495 343.129C195.882 343.873 194.208 344.121 191.603 343.935C187.509 343.625 185.4 342.447 183.105 339.035C181.12 336.182 181.368 329.855 183.539 326.816C186.703 322.35 193.339 321.048 198.239 323.901Z" fill="white"/>
<path d="M207.791 229.871C205.558 230.801 199.914 233.344 195.262 235.453C190.548 237.5 186.454 239.237 186.082 239.237C185.71 239.237 185.462 243.454 185.462 251.021C185.462 257.472 185.648 262.806 185.834 262.806C186.082 262.806 192.347 260.821 199.79 258.34L213.373 253.937V240.973C213.373 231.049 213.187 228.072 212.629 228.134C212.195 228.134 210.024 228.94 207.791 229.871Z" fill="white"/>
<path d="M208.101 261.441C205.372 262.248 199.17 264.109 194.332 265.659L185.462 268.45V276.079V283.709L199.542 284.081C207.295 284.267 213.621 284.391 213.683 284.329C213.683 284.267 213.559 278.747 213.373 272.11L213.063 259.953L208.101 261.441Z" fill="white"/>
<defs>
<linearGradient id="paint0_linear_201_64" x1="255.864" y1="8.42944" x2="255.864" y2="503.299" gradientUnits="userSpaceOnUse">
<stop stop-color="#00B3FF"/>
<stop offset="1" stop-color="#003A86"/>
</linearGradient>
</defs>
</svg>
